<svg xmlns="http://www.w3.org/2000/svg" width="1200" height="500" viewBox="0 0 1200 500">
<defs>
  <linearGradient id="gold" x1="0" y1="0" x2="1" y2="1">
    <stop offset="0" stop-color="#fff3b0"/><stop offset=".22" stop-color="#f5c84c"/>
    <stop offset=".52" stop-color="#b97913"/><stop offset=".78" stop-color="#f1c342"/><stop offset="1" stop-color="#fff0a0"/>
  </linearGradient>
  <filter id="shadow" x="-30%" y="-30%" width="160%" height="160%"><feDropShadow dx="0" dy="8" stdDeviation="7" flood-color="#000" flood-opacity=".35"/></filter>
</defs>
<g filter="url(#shadow)" fill="url(#gold)">
  <g transform="translate(285 250)">
    <path d="M-18-108c25-20 58-31 93-28L54-94c-23-3-42 2-58 13Z"/><path d="M75-136c35 8 65 27 88 55l-47 8c-15-17-30-27-51-33Z"/>
    <path d="M163-81c20 30 28 64 26 99l-47-24c3-22-1-39-11-57Z"/><path d="M189 18c-5 35-19 67-44 92l-23-48c16-15 25-31 29-52Z"/>
    <path d="M145 110c-30 21-65 30-101 27l24-47c22 3 41-2 59-13Z"/><path d="M44 137c-35-5-68-20-94-47l48-8c14 17 30 28 52 34Z"/>
    <path d="M-50 90c-21-29-30-63-27-98l47 24c-3 22 2 39 12 57Z"/><path d="M-77-8c5-36 20-68 45-93l23 48c-15 15-24 31-28 53Z"/>
    <circle cx="54" cy="0" r="57" fill="#090a0d"/>
  </g>
  <text x="770" y="315" text-anchor="middle" font-family="Arial,Helvetica,sans-serif" font-size="285" font-weight="900" letter-spacing="-12">FBI</text>
</g>
</svg>